<?xml version="1.0" encoding="UTF-8" standalone="no"?><svg xmlns="http://www.w3.org/2000/svg" xmlns:xlink="http://www.w3.org/1999/xlink" contentScriptType="application/ecmascript" contentStyleType="text/css" height="297px" preserveAspectRatio="none" style="width:663px;height:297px;" version="1.1" viewBox="0 0 663 297" width="663px" zoomAndPan="magnify"><defs><filter height="300%" id="f1m4tkz4zthz4w" width="300%" x="-1" y="-1"><feGaussianBlur result="blurOut" stdDeviation="2.0"/><feColorMatrix in="blurOut" result="blurOut2" type="matrix" values="0 0 0 0 0 0 0 0 0 0 0 0 0 0 0 0 0 0 .4 0"/><feOffset dx="4.0" dy="4.0" in="blurOut2" result="blurOut3"/><feBlend in="SourceGraphic" in2="blurOut3" mode="normal"/></filter></defs><g><!--entity Server--><polygon fill="#FEFECE" filter="url(#f1m4tkz4zthz4w)" points="6,134,16,124,90,124,90,160.2969,80,170.2969,6,170.2969,6,134" style="stroke: #000000; stroke-width: 1.5;"/><line style="stroke: #000000; stroke-width: 1.5;" x1="80" x2="89" y1="134" y2="125"/><line style="stroke: #000000; stroke-width: 1.5;" x1="6" x2="80" y1="134" y2="134"/><line style="stroke: #000000; stroke-width: 1.5;" x1="80" x2="80" y1="134" y2="170.2969"/><text fill="#000000" font-family="sans-serif" font-size="14" lengthAdjust="spacingAndGlyphs" textLength="44" x="21" y="156.9951">Server</text><!--class MopedDataType--><rect fill="#FEFECE" filter="url(#f1m4tkz4zthz4w)" height="278.4844" id="MopedDataType" style="stroke: #A80036; stroke-width: 1.5;" width="133" x="259.5" y="8"/><ellipse cx="274.5" cy="24" fill="#EB937F" rx="11" ry="11" style="stroke: #A80036; stroke-width: 1.0;"/><path d="M272.7969,24.875 L272.7969,27.2969 L277.1563,27.2969 L277.1563,26.4219 C277.1563,25.9375 277.1875,25.7969 277.2969,25.6406 C277.4688,25.3906 277.7344,25.2813 278,25.2813 C278.2813,25.2813 278.5625,25.4375 278.7344,25.6875 C278.8125,25.8438 278.8438,25.9844 278.8438,26.4219 L278.8438,29 L270.8438,29 C270.4531,29 270.2188,28.9531 270.0781,28.8281 C269.8594,28.6719 269.7188,28.4219 269.7188,28.1563 C269.7188,27.8594 269.875,27.5938 270.125,27.4219 C270.2813,27.3125 270.4375,27.2969 270.8438,27.2969 L271.0938,27.2969 L271.0938,20.7813 L270.8438,20.7813 C270.4219,20.7813 270.2344,20.75 270.0781,20.6406 C269.8594,20.4688 269.7188,20.2188 269.7188,19.9375 C269.7188,19.6563 269.875,19.3594 270.125,19.2031 C270.2813,19.1094 270.4063,19.0938 270.8438,19.0938 L278.4688,19.0938 L278.4688,21.6406 C278.4688,22.1094 278.4375,22.25 278.3281,22.4219 C278.1563,22.6406 277.8906,22.7813 277.625,22.7813 C277.3438,22.7813 277.0625,22.625 276.8906,22.375 C276.8125,22.2188 276.7813,22.0469 276.7813,21.6406 L276.7813,20.7813 L272.7969,20.7813 L272.7969,23.1875 L274.25,23.1875 L274.25,23.0625 C274.25,22.6094 274.2813,22.4531 274.3906,22.2813 C274.5625,22.0625 274.8281,21.9219 275.0781,21.9219 C275.5313,21.9219 275.8438,22.2344 275.9063,22.7031 C275.9219,22.8594 275.9219,22.9063 275.9219,23.0625 L275.9219,24.9844 C275.9219,25.4375 275.8906,25.5938 275.7656,25.75 C275.6094,25.9688 275.3438,26.1094 275.0938,26.1094 C274.7969,26.1094 274.5156,25.9531 274.3594,25.7031 C274.2813,25.5469 274.25,25.3906 274.25,24.9844 L274.25,24.875 Z "/><text fill="#000000" font-family="sans-serif" font-size="12" lengthAdjust="spacingAndGlyphs" textLength="101" x="288.5" y="28.1543">MopedDataType</text><line style="stroke: #A80036; stroke-width: 1.5;" x1="260.5" x2="391.5" y1="40" y2="40"/><text fill="#000000" font-family="sans-serif" font-size="11" lengthAdjust="spacingAndGlyphs" textLength="82" x="265.5" y="54.2104">MOPED_STATE</text><text fill="#000000" font-family="sans-serif" font-size="11" lengthAdjust="spacingAndGlyphs" textLength="54" x="265.5" y="67.0151">VELOCITY</text><text fill="#000000" font-family="sans-serif" font-size="11" lengthAdjust="spacingAndGlyphs" textLength="109" x="265.5" y="79.8198">SENSOR_DISTANCE</text><text fill="#000000" font-family="sans-serif" font-size="11" lengthAdjust="spacingAndGlyphs" textLength="114" x="265.5" y="92.6245">ACC_TARGET_VALUE</text><text fill="#000000" font-family="sans-serif" font-size="11" lengthAdjust="spacingAndGlyphs" textLength="104" x="265.5" y="105.4292">ACC_P_CONSTANT</text><text fill="#000000" font-family="sans-serif" font-size="11" lengthAdjust="spacingAndGlyphs" textLength="100" x="265.5" y="118.2339">ACC_I_CONSTANT</text><text fill="#000000" font-family="sans-serif" font-size="11" lengthAdjust="spacingAndGlyphs" textLength="105" x="265.5" y="131.0386">ACC_D_CONSTANT</text><text fill="#000000" font-family="sans-serif" font-size="11" lengthAdjust="spacingAndGlyphs" textLength="114" x="265.5" y="143.8433">ACC_INTEGRAL_SUM</text><text fill="#000000" font-family="sans-serif" font-size="11" lengthAdjust="spacingAndGlyphs" textLength="111" x="265.5" y="156.6479">LAT_TARGET_VALUE</text><text fill="#000000" font-family="sans-serif" font-size="11" lengthAdjust="spacingAndGlyphs" textLength="101" x="265.5" y="169.4526">LAT_P_CONSTANT</text><text fill="#000000" font-family="sans-serif" font-size="11" lengthAdjust="spacingAndGlyphs" textLength="97" x="265.5" y="182.2573">LAT_I_CONSTANT</text><text fill="#000000" font-family="sans-serif" font-size="11" lengthAdjust="spacingAndGlyphs" textLength="102" x="265.5" y="195.062">LAT_D_CONSTANT</text><text fill="#000000" font-family="sans-serif" font-size="11" lengthAdjust="spacingAndGlyphs" textLength="111" x="265.5" y="207.8667">LAT_INTEGRAL_SUM</text><text fill="#000000" font-family="sans-serif" font-size="11" lengthAdjust="spacingAndGlyphs" textLength="58" x="265.5" y="220.6714">THROTTLE</text><text fill="#000000" font-family="sans-serif" font-size="11" lengthAdjust="spacingAndGlyphs" textLength="56" x="265.5" y="233.4761">STEERING</text><text fill="#000000" font-family="sans-serif" font-size="11" lengthAdjust="spacingAndGlyphs" textLength="62" x="265.5" y="246.2808">CUSTOM_1</text><text fill="#000000" font-family="sans-serif" font-size="11" lengthAdjust="spacingAndGlyphs" textLength="62" x="265.5" y="259.0854">CUSTOM_2</text><text fill="#000000" font-family="sans-serif" font-size="11" lengthAdjust="spacingAndGlyphs" textLength="62" x="265.5" y="271.8901">CUSTOM_3</text><line style="stroke: #A80036; stroke-width: 1.5;" x1="260.5" x2="391.5" y1="278.4844" y2="278.4844"/><!--entity Client--><polygon fill="#FEFECE" filter="url(#f1m4tkz4zthz4w)" points="562.5,134,572.5,124,641.5,124,641.5,160.2969,631.5,170.2969,562.5,170.2969,562.5,134" style="stroke: #000000; stroke-width: 1.5;"/><line style="stroke: #000000; stroke-width: 1.5;" x1="631.5" x2="640.5" y1="134" y2="125"/><line style="stroke: #000000; stroke-width: 1.5;" x1="562.5" x2="631.5" y1="134" y2="134"/><line style="stroke: #000000; stroke-width: 1.5;" x1="631.5" x2="631.5" y1="134" y2="170.2969"/><text fill="#000000" font-family="sans-serif" font-size="14" lengthAdjust="spacingAndGlyphs" textLength="39" x="577.5" y="156.9951">Client</text><!--link MopedDataType to Client--><path d="M397.832,147 C448.217,147 514.019,147 557.114,147 " fill="none" id="MopedDataType-Client" style="stroke: #A80036; stroke-width: 1.0;"/><polygon fill="#A80036" points="562.254,147,553.254,143,557.254,147,553.254,151,562.254,147" style="stroke: #A80036; stroke-width: 1.0;"/><polygon fill="#A80036" points="392.812,147,401.812,151,397.812,147,401.812,143,392.812,147" style="stroke: #A80036; stroke-width: 1.0;"/><text fill="#000000" font-family="sans-serif" font-size="13" lengthAdjust="spacingAndGlyphs" textLength="133" x="411" y="140.0669">communicates using</text><!--link Server to MopedDataType--><path d="M95.3272,147 C138.899,147 204.16,147 254.16,147 " fill="none" id="Server-MopedDataType" style="stroke: #A80036; stroke-width: 1.0;"/><polygon fill="#A80036" points="259.256,147,250.256,143,254.256,147,250.256,151,259.256,147" style="stroke: #A80036; stroke-width: 1.0;"/><polygon fill="#A80036" points="90.2222,147,99.2222,151,95.2222,147,99.2222,143,90.2222,147" style="stroke: #A80036; stroke-width: 1.0;"/><text fill="#000000" font-family="sans-serif" font-size="13" lengthAdjust="spacingAndGlyphs" textLength="133" x="108.25" y="140.0669">communicates using</text><!--
@startuml
allow_mixing

node Server

enum MopedDataType {
    MOPED_STATE
    VELOCITY
    SENSOR_DISTANCE
    ACC_TARGET_VALUE
    ACC_P_CONSTANT
    ACC_I_CONSTANT
    ACC_D_CONSTANT
    ACC_INTEGRAL_SUM
    LAT_TARGET_VALUE
    LAT_P_CONSTANT
    LAT_I_CONSTANT
    LAT_D_CONSTANT
    LAT_INTEGRAL_SUM
    THROTTLE
    STEERING
    CUSTOM_1
    CUSTOM_2
    CUSTOM_3
}

node Client

MopedDataType <-> Client : communicates using
Server  <-> MopedDataType : communicates using
@enduml

PlantUML version 1.2017.18(Fri Oct 06 16:56:32 UTC 2017)
(GPL source distribution)
Java Runtime: Java(TM) SE Runtime Environment
JVM: Java HotSpot(TM) 64-Bit Server VM
Java Version: 1.7.0_25-b15
Operating System: Linux
Default Encoding: UTF-8
Language: en
Country: US
--></g></svg>